# xmcd
#
# Track frame offsets:
#	150
#	12391
#	23878
#	34500
#	46512
#	59902
#	72635
#	84643
#	97597
#	110397
#	122462
#	134401
#
# Disc length: 1952 seconds
#
# Revision: 0
# Processed by: cddbd v1.4PL0 Copyright (c) Steve Scherf et al.
# Submitted via: dBpowerAMP V4.0
#
DISCID=98079e0c
DTITLE=Banda Jovinsong - Estoy  loco
DYEAR=2003
DGENRE=banda
TTITLE0=Estoy loco
TTITLE1=Ausencia eterna
TTITLE2=Mil cadenas
TTITLE3=Cumbia chevere
TTITLE4=No se que hacer
TTITLE5=Tu loco amor
TTITLE6=Mujer tan preciosa
TTITLE7=Enamorada
TTITLE8=Si me hubieras querido
TTITLE9=Doy gracias al cielo
TTITLE10=Imposible fue
TTITLE11=No pasando de cincuenta
EXTD=
EXTT0=
EXTT1=
EXTT2=
EXTT3=
EXTT4=
EXTT5=
EXTT6=
EXTT7=
EXTT8=
EXTT9=
EXTT10=
EXTT11=
PLAYORDER=
